<svg width="100" height="100" viewBox="0 0 100 100" fill="none" xmlns="http://www.w3.org/2000/svg">
<path d="M47.7478 13.9587C48.0055 13.9576 48.0055 13.9576 48.2685 13.9565C48.6296 13.9559 48.9907 13.9574 49.3518 13.9606C49.9009 13.9648 50.4496 13.9607 50.9987 13.9557C51.3514 13.9562 51.7042 13.9572 52.0569 13.9587C52.2191 13.9572 52.3813 13.9556 52.5484 13.9539C53.8788 13.9751 54.9071 14.3428 55.9067 15.2344C56.0119 15.3633 56.1172 15.4922 56.2256 15.625C56.3338 15.7539 56.4421 15.8828 56.5536 16.0156C57.6455 17.5265 57.4651 19.135 57.1915 20.8916C57.0856 21.5416 56.9732 22.1905 56.8604 22.8394C56.8044 23.1736 56.7487 23.5079 56.6933 23.8422C56.2891 26.2498 56.2891 26.2498 56.0547 26.9531C56.3037 26.9755 56.5527 26.9979 56.8092 27.021C57.8322 27.135 58.8073 27.3662 59.8022 27.6245C59.9708 27.6669 60.1394 27.7094 60.313 27.7531C61.185 27.9752 62.041 28.2167 62.8906 28.5156C62.6191 29.263 62.2646 29.9366 61.8802 30.6294C59.5415 34.868 59.0024 39.3405 60.3203 44.0071C60.638 45.0158 61.0295 45.9411 61.5234 46.875C61.6194 47.0631 61.7153 47.2511 61.8141 47.4449C63.8911 51.2768 67.5399 54.0825 71.6919 55.3589C76.7572 56.6223 81.3043 55.8984 85.8007 53.3063C86.223 53.0758 86.6573 52.8976 87.1094 52.7344C88.7195 58.0965 89.2578 63.1377 89.2578 68.75C63.4121 68.75 37.5664 68.75 10.9375 68.75C10.9375 60.4013 10.9375 60.4013 11.5234 57.8125C11.5602 57.6421 11.5969 57.4717 11.6347 57.2962C13.8606 47.1923 19.9449 38.3432 28.6011 32.6782C33.31 29.672 38.3205 27.9828 43.75 26.7578C43.6968 26.4537 43.6968 26.4537 43.6424 26.1434C43.5097 25.3829 43.3792 24.622 43.2493 23.861C43.1931 23.5332 43.1362 23.2056 43.0788 22.878C42.1752 17.7174 42.1752 17.7174 43.409 15.8379C44.5547 14.3674 45.9311 13.941 47.7478 13.9587ZM31.7383 38.4277C31.6026 38.5239 31.4668 38.62 31.327 38.7191C29.9274 39.7272 28.6164 40.8293 27.3438 41.9922C27.1836 42.1382 27.0235 42.2842 26.8585 42.4347C25.5734 43.6651 24.4922 45.0564 23.4375 46.4844C23.3116 46.6543 23.3116 46.6543 23.1833 46.8276C20.5262 50.4696 18.871 54.663 17.8589 59.0332C17.8212 59.1868 17.7834 59.3404 17.7445 59.4987C17.578 60.2804 17.545 60.6523 17.8291 61.4227C18.1164 61.9299 18.1164 61.9299 18.5547 62.1094C19.1242 62.1908 19.1242 62.1908 19.7266 62.1094C20.3822 61.5785 20.6214 61.1529 20.7993 60.3363C20.8435 60.1434 20.8878 59.9504 20.9333 59.7517C20.9782 59.5468 21.0231 59.3419 21.0693 59.1309C22.386 53.5574 24.9303 48.8498 28.9062 44.7266C29.046 44.5745 29.1857 44.4224 29.3297 44.2658C30.7418 42.7714 32.4328 41.6161 34.1225 40.4579C34.8956 39.9252 34.8956 39.9252 35.3882 39.148C35.3405 38.5283 35.1358 38.1889 34.7656 37.6953C33.5629 37.0939 32.7008 37.7285 31.7383 38.4277Z" fill="#A52A2A"/>
<path d="M6.95362 71.7767C7.18017 71.775 7.18017 71.775 7.41131 71.7732C7.92046 71.7704 8.42944 71.7731 8.93859 71.7758C9.30608 71.7749 9.67356 71.7737 10.041 71.7721C11.0532 71.7688 12.0654 71.7705 13.0776 71.7729C14.1683 71.7746 15.2589 71.7719 16.3496 71.7698C18.4872 71.7663 20.6247 71.767 22.7623 71.7693C24.499 71.7711 26.2357 71.7713 27.9724 71.7705C28.2193 71.7703 28.4661 71.7702 28.7204 71.7701C29.2218 71.7698 29.7233 71.7696 30.2247 71.7693C34.7961 71.7672 39.3674 71.7694 43.9388 71.7735C48.1138 71.7772 52.2887 71.7769 56.4636 71.7732C61.152 71.769 65.8404 71.7673 70.5288 71.7697C71.0284 71.77 71.528 71.7702 72.0276 71.7705C72.3963 71.7706 72.3963 71.7706 72.7725 71.7708C74.5079 71.7715 76.2432 71.7704 77.9785 71.7685C80.0923 71.7663 82.206 71.7669 84.3198 71.7711C85.399 71.7731 86.4782 71.7739 87.5574 71.7714C88.5443 71.769 89.5312 71.7703 90.5181 71.7745C90.8761 71.7753 91.2341 71.7749 91.5921 71.773C92.077 71.7706 92.5616 71.773 93.0464 71.7767C93.2573 71.7739 93.2573 71.7739 93.4725 71.7711C94.1308 71.7811 94.4767 71.8337 95.0082 72.2358C95.6485 73.1204 95.4313 74.3289 95.4224 75.3784C95.427 75.6275 95.4317 75.8767 95.4365 76.1333C95.4361 76.3734 95.4357 76.6135 95.4353 76.8608C95.4355 77.1893 95.4355 77.1893 95.4358 77.5245C95.231 78.5218 94.5821 78.9313 93.7744 79.49C93.573 79.6121 93.3716 79.7342 93.1641 79.8599C93.055 79.9265 92.946 79.9931 92.8337 80.0617C92.4889 80.2719 92.1429 80.4802 91.7969 80.6885C91.5649 80.8295 91.3329 80.9706 91.1011 81.1119C90.4877 81.4852 89.873 81.8564 89.2578 82.2266C89.112 82.3286 88.9662 82.4306 88.816 82.5357C88.1604 82.875 87.713 82.8878 86.9763 82.8911C86.8471 82.8925 86.7178 82.8939 86.5847 82.8953C86.1509 82.8992 85.7173 82.899 85.2835 82.8987C84.9696 82.9007 84.6558 82.9029 84.3419 82.9053C83.4787 82.9111 82.6155 82.9133 81.7523 82.9149C80.8215 82.9172 79.8907 82.9228 78.9599 82.9279C76.7109 82.9395 74.462 82.9454 72.213 82.9506C71.153 82.9531 70.093 82.9563 69.033 82.9594C65.5073 82.9693 61.9816 82.9778 58.4559 82.9821C57.541 82.9832 56.626 82.9843 55.7111 82.9855C55.4837 82.9857 55.2563 82.986 55.0221 82.9863C51.3431 82.9912 47.6642 83.006 43.9853 83.0251C40.205 83.0445 36.4247 83.055 32.6444 83.0569C30.5232 83.0581 28.4021 83.0632 26.281 83.0782C24.4733 83.091 22.6659 83.0956 20.8582 83.09C19.9371 83.0873 19.0164 83.0883 18.0953 83.0998C11.1437 83.1814 11.1437 83.1814 8.1958 80.7729C7.53844 80.2513 6.82398 79.8184 6.11572 79.3701C4.91888 78.5878 4.91888 78.5878 4.68749 78.125C4.62908 77.2228 4.63318 76.3189 4.62646 75.415C4.62079 75.1625 4.61513 74.91 4.60929 74.6498C4.60766 74.4074 4.60602 74.1649 4.60433 73.9151C4.60149 73.6926 4.59864 73.47 4.5957 73.2408C4.80958 71.8789 5.74545 71.761 6.95362 71.7767Z" fill="#A52A2A"/>
<path d="M85.0961 27.5937C87.8999 29.8808 90.1875 33.0412 90.6247 36.7187C90.9097 40.961 90.3654 44.9131 87.5038 48.2244C84.9243 51.0497 81.7118 53.005 77.821 53.186C73.7799 53.3017 70.1539 52.518 67.1017 49.7314C64.2223 46.9698 62.5367 43.7474 62.4214 39.7197C62.3752 35.736 63.3723 32.2306 66.1716 29.3118C71.1621 24.3154 79.2803 23.1984 85.0961 27.5937ZM74.9997 32.8125C74.9997 34.3594 74.9997 35.9062 74.9997 37.5C73.4528 37.5 71.9059 37.5 70.3122 37.5C70.3122 38.5312 70.3122 39.5625 70.3122 40.625C71.8591 40.625 73.4059 40.625 74.9997 40.625C74.9997 42.1719 74.9997 43.7187 74.9997 45.3125C76.0309 45.3125 77.0622 45.3125 78.1247 45.3125C78.1247 43.7656 78.1247 42.2187 78.1247 40.625C79.6716 40.625 81.2184 40.625 82.8122 40.625C82.8122 39.5937 82.8122 38.5625 82.8122 37.5C81.2653 37.5 79.7184 37.5 78.1247 37.5C78.1247 35.9531 78.1247 34.4062 78.1247 32.8125C77.0934 32.8125 76.0622 32.8125 74.9997 32.8125Z" fill="#A52A2A"/>
</svg>
