<svg width="24" height="24" viewBox="0 0 24 24" fill="none" xmlns="http://www.w3.org/2000/svg">
<path d="M19.5 3.75H4.5C4.08579 3.75 3.75 4.08579 3.75 4.5V19.5C3.75 19.9142 4.08579 20.25 4.5 20.25H19.5C19.9142 20.25 20.25 19.9142 20.25 19.5V4.5C20.25 4.08579 19.9142 3.75 19.5 3.75Z" stroke="#A52A2A" stroke-width="1.5" stroke-linecap="round" stroke-linejoin="round"/>
<path d="M16.5 2.25V5.25" stroke="#A52A2A" stroke-width="1.5" stroke-linecap="round" stroke-linejoin="round"/>
<path d="M7.5 2.25V5.25" stroke="#A52A2A" stroke-width="1.5" stroke-linecap="round" stroke-linejoin="round"/>
<path d="M3.75 8.25H20.25" stroke="#A52A2A" stroke-width="1.5" stroke-linecap="round" stroke-linejoin="round"/>
<path d="M8.625 11.9995H11.25L9.75 13.8745C9.99664 13.8745 10.2395 13.9353 10.457 14.0516C10.6745 14.1678 10.86 14.3359 10.9971 14.541C11.1341 14.746 11.2185 14.9817 11.2427 15.2271C11.267 15.4726 11.2303 15.7202 11.136 15.9481C11.0417 16.176 10.8926 16.3771 10.702 16.5337C10.5114 16.6902 10.2852 16.7973 10.0433 16.8456C9.80143 16.8938 9.55139 16.8816 9.31534 16.8102C9.07928 16.7387 8.86449 16.6101 8.68999 16.4358" stroke="#A52A2A" stroke-width="1.5" stroke-linecap="round" stroke-linejoin="round"/>
<path d="M13.5 13.1245L15 11.9995V16.8745" stroke="#A52A2A" stroke-width="1.5" stroke-linecap="round" stroke-linejoin="round"/>
</svg>
