<svg width="46" height="45" viewBox="0 0 46 45" fill="none" xmlns="http://www.w3.org/2000/svg">
<path fill-rule="evenodd" clip-rule="evenodd" d="M22.5659 0.584267C20.7842 0.9699 19.3049 2.42508 18.8798 4.21038C18.5505 5.59346 18.937 7.42467 19.7486 8.32688C20.4079 9.05994 21.2986 9.38315 23.1127 9.5479C23.9265 9.62179 24.7439 9.47705 25.0089 9.21213C25.1775 9.04361 25.1877 8.96021 25.1322 8.21119C25.0988 7.76179 25.0392 7.15195 24.9995 6.856C24.9151 6.22536 24.9996 5.84008 25.2802 5.5766C25.6423 5.23652 26.4717 4.92721 27.4462 4.76874C28.1653 4.6518 28.3973 4.58113 28.396 4.47943C28.3925 4.20805 27.9571 3.11707 27.6803 2.68588C27.0196 1.65669 25.8183 0.839233 24.5847 0.579245C23.8188 0.417818 23.3292 0.418984 22.5659 0.584267ZM27.1383 5.19688C26.3168 5.36468 25.7647 5.60171 25.4911 5.90412C25.3371 6.07433 25.3284 6.16742 25.3994 6.8777C25.4427 7.3097 25.4789 8.03541 25.48 8.49037C25.4817 9.20011 25.4565 9.34279 25.3025 9.49534C25.0796 9.71614 24.2028 9.95021 23.6013 9.94949C23.1696 9.94895 21.6895 9.75363 21.1575 9.62691L20.9059 9.567L21.1751 9.85712C22.4358 11.2161 24.7021 11.5201 26.3548 10.552C27.5278 9.86492 28.3981 8.31594 28.3981 6.91528C28.3981 6.45799 28.1975 5.58189 28.0162 5.24657L27.9046 5.0403L27.1383 5.19688ZM19.9747 11.2171C18.6927 11.4298 17.4757 12.4036 16.8333 13.7309C16.3862 14.6544 15.7419 16.8711 15.469 18.425C15.1078 20.4803 15.2104 24.2231 15.665 25.5831C16.0374 26.6971 16.6976 27.4232 17.6679 27.7861C17.9302 27.8842 19.8298 28.2244 21.9884 28.5599C24.1073 28.8894 25.8453 29.1651 25.8507 29.1728C25.8561 29.1805 26.4567 30.7002 27.1855 32.5499C28.6911 36.3718 28.6395 36.2574 29.0409 36.6668C29.65 37.2882 30.7726 37.5244 31.545 37.1937C32.3945 36.83 32.9717 35.9555 32.9732 35.0298C32.974 34.5599 32.8007 34.0653 31.3076 30.2766C30.391 27.9508 29.5576 25.9129 29.4556 25.7479C29.2257 25.3761 28.655 24.9545 28.2272 24.8403C28.0497 24.7929 26.7135 24.5705 25.2576 24.346C23.8018 24.1215 22.4734 23.9125 22.3057 23.8818L22.0008 23.8258L22.0655 22.5603C22.101 21.8643 22.1786 20.9518 22.2379 20.5325L22.3457 19.7702L21.3118 18.7373C19.8865 17.3136 18.6458 15.5016 18.4825 14.6053C18.3487 13.8709 18.7775 13.078 19.5089 12.7078C20.546 12.1826 21.4276 12.5306 22.1281 13.7419C22.6396 14.6261 23.1034 15.2524 23.2018 15.1915C23.3273 15.114 23.2969 13.9091 23.1563 13.3809C22.8884 12.3753 22.3275 11.6233 21.6363 11.343C21.229 11.1778 20.5302 11.1249 19.9747 11.2171ZM19.8457 12.9498C18.8342 13.3103 18.5819 14.2661 19.2002 15.3944C20.666 18.0689 23.1261 20.2093 25.8647 21.1925C27.2603 21.6935 29.8031 22.0167 30.6147 21.7961C31.6189 21.5233 32.0861 20.5327 31.631 19.6412C31.3161 19.0242 30.9799 18.8953 29.4824 18.8164C27.5168 18.713 26.4422 18.378 24.9999 17.4188C23.6804 16.5413 22.7945 15.5547 21.6237 13.6593C21.44 13.3616 21.2276 13.1594 20.9542 13.0216C20.4959 12.7906 20.3236 12.7794 19.8457 12.9498ZM0.0894677 14.8677L0.0410156 27.273L0.339804 27.5717C0.553352 27.7851 0.752364 27.8868 1.03698 27.9279C1.25609 27.9595 4.06164 27.9732 7.2716 27.9584C12.7472 27.933 13.1233 27.9211 13.358 27.7673C13.8689 27.4326 13.8624 27.5182 13.8624 21.1154C13.8624 14.7954 13.8637 14.8129 13.4033 14.4907C13.2151 14.3589 12.5767 14.3444 6.93494 14.3444H0.675559L0.0894677 14.8677ZM36.2491 18.9534C35.4894 19.1923 34.8806 19.6979 34.5167 20.3923C34.3109 20.7847 34.2784 20.956 34.2768 21.6535C34.2754 22.3182 34.3117 22.535 34.4827 22.8817C34.922 23.7733 35.8204 24.3945 36.7695 24.4631C37.2453 24.4975 37.3162 24.4783 37.5535 24.251C38.493 23.3515 38.4145 19.6501 37.4416 18.969C37.2043 18.8028 36.7469 18.7969 36.2491 18.9534ZM32.1666 20.6527C32.1666 20.9164 31.8343 21.477 31.5086 21.7629C31.0469 22.1681 30.4694 22.2731 29.1006 22.201C27.9925 22.1425 27.9494 22.1469 27.9494 22.3178C27.9494 22.598 28.3194 22.9546 28.6672 23.0098C28.9018 23.047 29.229 22.9667 29.96 22.6921C30.4984 22.49 30.946 22.335 30.9549 22.3479C30.9638 22.3606 31.8905 25.0594 33.0141 28.3452C34.1378 31.6309 35.0904 34.3732 35.1311 34.4391C35.1869 34.5294 35.3114 34.4595 35.6374 34.1547C35.8751 33.9324 36.3193 33.6044 36.6244 33.4256C39.4247 31.7854 42.9592 32.408 44.9703 34.8959C45.3827 35.406 45.5031 35.5036 45.6598 35.4547C46.0538 35.3319 46.059 34.9694 45.6762 34.3172C44.5033 32.3188 42.3414 31.0163 39.9592 30.8729L39.0932 30.8208L38.7283 29.8693C37.9234 27.7708 36.5361 26.2489 34.4137 25.1356L33.7593 24.7924L33.0585 22.74C32.4018 20.8168 32.1666 20.2662 32.1666 20.6527ZM4.28228 29.0226C4.21956 29.0479 4.10848 29.184 4.03553 29.325C3.86891 29.647 3.84711 31.7397 4.00718 32.0401C4.14087 32.291 4.35388 32.4538 4.55334 32.4573C4.75684 32.461 4.75271 32.5044 4.48712 33.1578C3.52975 35.5127 2.7389 38.5106 2.73711 39.7917L2.73639 40.2626H5.83338L5.83266 39.0743C5.83203 38.0781 5.86595 37.7772 6.04208 37.2134C6.48308 35.8017 7.29833 34.6117 8.3597 33.8301C9.40169 33.0628 10.3296 32.6953 11.5806 32.5544C14.7369 32.1988 17.7391 34.2722 18.5862 37.3927C18.6999 37.8115 18.7435 38.2977 18.741 39.1191L18.7376 40.2626H33.5725L33.4916 39.702C33.4471 39.3938 33.4347 38.8893 33.4641 38.581L33.5175 38.0205H21.5957L21.3058 37.3255C20.733 35.9517 20.3082 34.3465 20.18 33.0714C20.1215 32.4893 20.1272 32.4654 20.3782 32.2496L20.6367 32.0273V30.7264C20.6367 29.473 20.6288 29.417 20.4193 29.1941L20.2017 28.9626L12.299 28.9697C7.95253 28.9736 4.345 28.9974 4.28228 29.0226ZM10.9665 33.5872C9.86306 33.8544 8.7187 34.579 7.99174 35.471C5.88021 38.0618 6.48542 41.854 9.30066 43.6726C10.1981 44.2524 11.114 44.5083 12.2922 44.5083C13.1192 44.5083 13.3955 44.4698 13.997 44.2707C15.803 43.6732 17.2138 42.142 17.6842 40.2687C17.8877 39.4586 17.8231 38.0018 17.5488 37.2134C16.9268 35.4256 15.4176 34.0545 13.552 33.5821C12.8963 33.4161 11.6629 33.4185 10.9665 33.5872ZM38.6268 33.5822C38.3554 33.6562 37.7991 33.8804 37.3906 34.0805C36.0265 34.7488 34.9018 36.1695 34.5474 37.672C34.3734 38.4099 34.3726 39.6305 34.5456 40.311C35.2685 43.1533 38.1498 45.0073 40.9597 44.4381C43.0466 44.0155 44.5333 42.702 45.2292 40.6661C45.5339 39.7744 45.5712 38.4996 45.3197 37.5721C44.8441 35.8189 43.4793 34.349 41.7652 33.7443C40.9221 33.4469 39.4102 33.3688 38.6268 33.5822ZM13.3497 37.1014C14.6649 37.8169 14.8535 39.6214 13.7172 40.6186C13.2597 41.02 12.8852 41.1597 12.2727 41.1574C10.9627 41.1525 9.98707 40.068 10.1215 38.7663C10.2849 37.1841 11.9362 36.3325 13.3497 37.1014ZM40.8317 36.9865C41.6508 37.3274 42.1778 38.2206 42.1038 39.1423C42.0537 39.7672 41.8955 40.1206 41.4802 40.5356C41.0663 40.9494 40.5592 41.1551 39.9474 41.1574C39.3349 41.1597 38.9604 41.02 38.5028 40.6186C37.1699 39.4488 37.722 37.2829 39.4642 36.8476C39.8049 36.7625 40.4513 36.8282 40.8317 36.9865Z" fill="#FF9E0C"/>
</svg>
