<svg width="24" height="25" viewBox="0 0 24 25" fill="none" xmlns="http://www.w3.org/2000/svg">
<path d="M12 13.4517C13.6569 13.4517 15 12.1085 15 10.4517C15 8.79481 13.6569 7.45166 12 7.45166C10.3431 7.45166 9 8.79481 9 10.4517C9 12.1085 10.3431 13.4517 12 13.4517Z" stroke="white" stroke-width="1.5" stroke-linecap="round" stroke-linejoin="round"/>
<path d="M19.5 10.4517C19.5 17.2017 12 22.4517 12 22.4517C12 22.4517 4.5 17.2017 4.5 10.4517C4.5 8.46254 5.29018 6.55488 6.6967 5.14836C8.10322 3.74184 10.0109 2.95166 12 2.95166C13.9891 2.95166 15.8968 3.74184 17.3033 5.14836C18.7098 6.55488 19.5 8.46254 19.5 10.4517V10.4517Z" stroke="white" stroke-width="1.5" stroke-linecap="round" stroke-linejoin="round"/>
</svg>
