<svg width="24" height="25" viewBox="0 0 24 25" fill="none" xmlns="http://www.w3.org/2000/svg">
<path d="M8.66965 12.2063C9.44762 13.7968 10.7369 15.0802 12.3309 15.8509C12.4475 15.9062 12.5765 15.9301 12.7052 15.9204C12.8339 15.9106 12.9579 15.8676 13.0648 15.7954L15.4119 14.2303C15.5157 14.1611 15.6352 14.1188 15.7594 14.1074C15.8837 14.096 16.0088 14.1158 16.1235 14.1649L20.5144 16.0468C20.6636 16.1101 20.7881 16.2202 20.8693 16.3605C20.9504 16.5008 20.9838 16.6637 20.9643 16.8246C20.8255 17.9106 20.2956 18.9088 19.4739 19.6322C18.6521 20.3557 17.5948 20.7548 16.5 20.7549C13.1185 20.7549 9.87548 19.4116 7.48439 17.0205C5.0933 14.6294 3.75 11.3864 3.75 8.00485C3.75006 6.91002 4.14918 5.85274 4.87264 5.03099C5.5961 4.20923 6.59428 3.67936 7.68028 3.54057C7.84117 3.5211 8.00403 3.55445 8.14432 3.63558C8.28461 3.71671 8.39473 3.84124 8.4581 3.99041L10.3416 8.38521C10.3903 8.49888 10.4101 8.62284 10.3994 8.74604C10.3886 8.86925 10.3475 8.98787 10.2798 9.09136L8.72011 11.4745C8.64912 11.5817 8.60716 11.7054 8.59831 11.8337C8.58947 11.962 8.61405 12.0904 8.66965 12.2063V12.2063Z" stroke="white" stroke-width="1.5" stroke-linecap="round" stroke-linejoin="round"/>
</svg>
