<svg width="60" height="60" viewBox="0 0 60 60" fill="none" xmlns="http://www.w3.org/2000/svg">
<circle cx="30" cy="30" r="30" fill="#880808"/>
<path d="M39.3889 29.3601L25.8911 21.1111C25.7774 21.0417 25.6473 21.0037 25.514 21.0012C25.3808 20.9987 25.2493 21.0318 25.1331 21.0969C25.0169 21.1621 24.9202 21.2571 24.8528 21.3721C24.7855 21.487 24.75 21.6179 24.75 21.7511V38.249C24.75 38.3822 24.7855 38.513 24.8528 38.628C24.9202 38.743 25.0169 38.8379 25.1331 38.9031C25.2493 38.9683 25.3808 39.0013 25.514 38.9988C25.6473 38.9963 25.7774 38.9584 25.8911 38.8889L39.3889 30.64C39.4985 30.573 39.5891 30.479 39.652 30.3669C39.7148 30.2548 39.7478 30.1285 39.7478 30C39.7478 29.8716 39.7148 29.7452 39.652 29.6332C39.5891 29.5211 39.4985 29.4271 39.3889 29.3601Z" stroke="white" stroke-width="1.875" stroke-linecap="round" stroke-linejoin="round"/>
</svg>
